PathFileType	4	(X/Y/Z)	Walk6.trc
DataRate	CameraRate	NumFrames	NumMarkers	Units	OrigDataRate	OrigDataStartFrame	OrigNumFrames
200.000000	200.000000	6	59	mm	200.000000	719	1038
Frame#	Times		LFHD		RFHD		RCAR		RWRU		LACR1		RACR1		RUA1		RTH2		LLFC		RFA1		LMT5		RASI		LTH3		LUA1		LElbow		LMT1		LTB4		RTH4		LToe		RBHD		RLFC		LTB3		LTH4		LTH2		STRN		CLAV		LASI		RTH3		LTH1		LWRU		C7		LFA1		RBack		RMT1		RTH1		LBHD		RMT5		RCAL		LPSI		LCAR		RToe		RTB2		RLMAL		RPSI		RTB3		LWRR		RTB4		RTB1		LTB1		LLMAL		RMMAL		RElbow		RWRR		RElbowM		T10		LTB2		LMMAL		LCAL		LElbowM
			X1	Y1	Z1	X2	Y2	Z2	X3	Y3	Z3	X4	Y4	Z4	X5	Y5	Z5	X6	Y6	Z6	X7	Y7	Z7	X8	Y8	Z8	X9	Y9	Z9	X10	Y10	Z10	X11	Y11	Z11	X12	Y12	Z12	X13	Y13	Z13	X14	Y14	Z14	X15	Y15	Z15	X16	Y16	Z16	X17	Y17	Z17	X18	Y18	Z18	X19	Y19	Z19	X20	Y20	Z20	X21	Y21	Z21	X22	Y22	Z22	X23	Y23	Z23	X24	Y24	Z24	X25	Y25	Z25	X26	Y26	Z26	X27	Y27	Z27	X28	Y28	Z28	X29	Y29	Z29	X30	Y30	Z30	X31	Y31	Z31	X32	Y32	Z32	X33	Y33	Z33	X34	Y34	Z34	X35	Y35	Z35	X36	Y36	Z36	X37	Y37	Z37	X38	Y38	Z38	X39	Y39	Z39	X40	Y40	Z40	X41	Y41	Z41	X42	Y42	Z42	X43	Y43	Z43	X44	Y44	Z44	X45	Y45	Z45	X46	Y46	Z46	X47	Y47	Z47	X48	Y48	Z48	X49	Y49	Z49	X50	Y50	Z50	X51	Y51	Z51	X52	Y52	Z52	X53	Y53	Z53	X54	Y54	Z54	X55	Y55	Z55	X56	Y56	Z56	X57	Y57	Z57	X58	Y58	Z58	X59	Y59	Z59

719	3.595	-456.44	1555	-40.805	-450.47	1551.7	57.453	-476.34	796.58	340.54	-531.11	835.32	352.08	-582.53	1358.2	-180.36	-589.75	1352.1	176.38	-608.44	1208.2	265.14	-609.11	605.95	154.96	-483.32	485.25	-181.27	-543.42	942.29	325.34	-285.19	53.073	-160.15	-538.6	931.15	167.11	-490.7	551.96	-202.62	-632.81	1224.1	-263.83	-721.12	1098.9	-297.75	-267.16	76.383	-79.695	-403.11	263.93	-89.379	-666.16	619.1	168.9	-232.38	90.018	-83.027	-620.76	1554.4	75.913	-707.29	445.02	134.61	-385.63	180.02	-94.171	-514.82	631.36	-234.11	-466.9	655.28	-205.08	-453.75	1200.2	14.535	-511.98	1320.4	2.9181	-503.15	950.24	-186.61	-686.87	536.24	149.46	-536.84	709.08	-261.07	-782.15	870.89	-377.14	-671.29	1400.7	13.447	-714.51	969.77	-345.18	-729.68	1293.3	100.76	-738.48	31.465	19.509	-634.47	694.65	187.54	-610.01	1546.1	-59.385	-750.3	21.372	108.69	-923.47	48.128	61.011	-745.31	975.96	-137.58	-764.28	814.17	-387.58	-692.47	28.277	26.673	-749.62	259.78	116.13	-863.31	75.285	104.74	-773.38	973.81	-6.1228	-775.78	173.04	57.096	-725.98	845.8	-334.51	-735.28	248.15	60.798	-690.67	322.6	54.275	-413.15	348.61	-82.061	-407.27	74.16	-153.27	-843.03	83.635	20.096	-638.73	1048.1	312.19	-489.61	850.85	293.57	-678.4	1023.8	232.51	-734.89	1074	-35.763	-409.49	267.53	-150.63	-394.57	83.644	-70.097	-447.87	22.454	-106.76	-720.11	1054.3	-198.15
720	3.6	-451.81	1554.6	-42.261	-445.95	1551.3	55.984	-472.14	796.93	339.84	-527.14	835.4	351.15	-577.59	1357.1	-181.91	-585.38	1351.9	174.93	-604.67	1208.3	264.02	-604.59	605.38	154.85	-476.71	484.93	-180.26	-539.5	942.47	324.57	-283.15	50.547	-158.1	-533.49	930.61	166.65	-482.62	552.16	-200.92	-627.91	1222.8	-265.04	-716.34	1097.6	-298.67	-265.32	73.174	-77.318	-399.42	262.58	-88.062	-661.54	618.67	169.05	-230.07	85.921	-80.243	-616.26	1553.9	74.276	-703.31	444.73	134.76	-382.68	178.52	-92.582	-507.49	631.1	-233.05	-460.02	655.75	-203.84	-448.87	1199.6	13.377	-507.24	1319.9	1.5083	-497.68	949.32	-186.93	-682.49	535.84	149.53	-530.31	708.41	-260.58	-778.17	869.69	-377.56	-666.73	1400.1	11.63	-710.15	968.34	-345.85	-725.17	1292.9	99.16	-738.37	31.57	19.62	-629.58	694.17	187.36	-605.36	1545.6	-61.01	-750.34	21.324	108.7	-923.07	49.887	61.234	-739.99	975.08	-138.37	-760.62	812.82	-387.79	-692.42	28.214	26.676	-747.29	259.95	116.37	-862.68	76.359	105.05	-768.12	973.09	-6.8732	-774.26	173.35	57.426	-722.16	844.42	-334.81	-732.46	247.78	61.829	-687.75	322.17	54.518	-408.62	347.35	-80.955	-405.08	73.102	-151.8	-842.31	84.66	20.41	-634.97	1048.2	311.2	-485.3	851.28	292.98	-674.41	1023.8	231.47	-729.81	1073.3	-36.618	-405.56	266.12	-149.35	-392.73	82.124	-68.522	-446.64	22.36	-105.77	-715.14	1053.1	-198.97
721	3.605	-447.18	1554.3	-43.74	-441.43	1550.9	54.492	-468.09	797.26	339.09	-523.29	835.49	350.19	-572.64	1356	-183.5	-581.02	1351.8	173.46	-600.92	1208.5	262.85	-599.98	604.85	154.74	-470.26	484.63	-179.28	-535.67	942.65	323.75	-281.3	48.024	-156.2	-528.32	930.08	166.15	-474.55	552.41	-199.15	-622.95	1221.4	-266.28	-711.49	1096.3	-299.62	-263.65	69.866	-75.038	-395.85	261.27	-86.784	-656.82	618.29	169.22	-227.9	81.63	-77.536	-611.77	1553.5	72.598	-699.22	444.46	134.93	-379.85	177.06	-91.07	-500.06	630.91	-231.93	-453.02	656.23	-202.57	-443.98	1199.1	12.177	-502.48	1319.4	0.058134	-492.22	948.45	-187.3	-678.01	535.47	149.61	-523.59	707.83	-260.02	-774.07	868.45	-378	-662.17	1399.6	9.761	-705.69	966.89	-346.56	-720.66	1292.5	97.519	-738.25	31.687	19.74	-624.61	693.72	187.19	-600.71	1545.2	-62.673	-750.39	21.263	108.72	-922.6	51.797	61.472	-734.66	974.22	-139.16	-756.83	811.44	-388.02	-692.37	28.15	26.676	-744.87	260.17	116.64	-861.97	77.526	105.38	-762.85	972.38	-7.6092	-772.65	173.73	57.783	-718.21	843.02	-335.13	-729.57	247.47	62.853	-684.72	321.77	54.803	-404.21	346.12	-79.845	-403.03	72.133	-150.46	-841.5	85.775	20.762	-631.27	1048.3	310.16	-481.13	851.69	292.36	-670.44	1023.7	230.36	-724.72	1072.6	-37.474	-401.68	264.77	-148.12	-391.05	80.64	-67.063	-445.61	22.402	-104.94	-710.11	1051.8	-199.83
722	3.61	-442.54	1554	-45.239	-436.91	1550.7	52.978	-464.19	797.55	338.3	-519.55	835.57	349.19	-567.66	1354.8	-185.14	-576.66	1351.7	171.98	-597.21	1208.6	261.63	-595.28	604.36	154.65	-463.98	484.37	-178.36	-531.93	942.82	322.89	-279.58	45.541	-154.49	-523.1	929.58	165.63	-466.54	552.71	-197.33	-617.93	1219.9	-267.56	-706.54	1094.9	-300.62	-262.12	66.508	-72.88	-392.36	260.02	-85.548	-652.01	617.94	169.42	-225.86	77.204	-74.94	-607.27	1553.1	70.883	-695.01	444.22	135.12	-377.11	175.67	-89.644	-492.57	630.8	-230.79	-445.93	656.71	-201.25	-439.08	1198.7	10.937	-497.71	1319	-1.4277	-486.78	947.63	-187.72	-673.41	535.13	149.7	-516.7	707.39	-259.38	-769.84	867.18	-378.47	-657.61	1399.1	7.8458	-701.11	965.4	-347.29	-716.15	1292.1	95.845	-738.11	31.815	19.867	-619.57	693.31	187.03	-596.04	1544.8	-64.371	-750.45	21.19	108.72	-922.05	53.873	61.726	-729.33	973.39	-139.95	-752.89	810.03	-388.27	-692.33	28.086	26.669	-742.34	260.45	116.95	-861.18	78.796	105.73	-757.55	971.69	-8.3304	-770.93	174.2	58.173	-714.12	841.59	-335.47	-726.59	247.23	63.845	-681.54	321.41	55.131	-399.92	344.95	-78.732	-401.08	71.273	-149.25	-840.59	86.988	21.153	-627.63	1048.4	309.06	-477.09	852.06	291.68	-666.51	1023.8	229.18	-719.63	1072	-38.328	-397.84	263.51	-146.93	-389.5	79.225	-65.726	-444.72	22.575	-104.25	-705.02	1050.6	-200.73
723	3.615	-437.88	1553.8	-46.756	-432.38	1550.5	51.445	-460.45	797.82	337.48	-515.95	835.67	348.17	-562.67	1353.7	-186.8	-572.3	1351.7	170.49	-593.52	1208.8	260.35	-590.47	603.93	154.57	-457.87	484.15	-177.5	-528.29	943	321.99	-278	43.136	-152.96	-517.82	929.11	165.05	-458.66	553.06	-195.51	-612.84	1218.5	-268.85	-701.5	1093.5	-301.65	-260.69	63.147	-70.867	-388.97	258.85	-84.362	-647.11	617.65	169.65	-223.93	72.704	-72.49	-602.78	1552.8	69.135	-690.65	444.03	135.34	-374.46	174.37	-88.313	-485.05	630.79	-229.63	-438.79	657.18	-199.92	-434.16	1198.3	9.6599	-492.94	1318.6	-2.9442	-481.35	946.87	-188.21	-668.7	534.82	149.82	-509.66	707.08	-258.69	-765.48	865.87	-378.95	-653.02	1398.8	5.8895	-696.43	963.9	-348.04	-711.65	1291.9	94.141	-737.96	31.955	20.003	-614.44	692.94	186.87	-591.37	1544.5	-66.101	-750.51	21.103	108.73	-921.39	56.13	61.996	-724	972.6	-140.73	-748.81	808.6	-388.54	-692.29	28.022	26.656	-739.69	260.8	117.3	-860.3	80.177	106.12	-752.26	971.02	-9.0356	-769.1	174.75	58.601	-709.89	840.15	-335.83	-723.55	247.1	64.783	-678.22	321.08	55.504	-395.73	343.86	-77.623	-399.22	70.53	-148.19	-839.57	88.307	21.587	-624.06	1048.6	307.91	-473.19	852.41	290.95	-662.62	1023.8	227.93	-714.55	1071.4	-39.177	-394.02	262.36	-145.78	-388.05	77.904	-64.516	-443.93	22.869	-103.71	-699.86	1049.3	-201.67
724	3.62	-433.22	1553.7	-48.288	-427.85	1550.4	49.894	-456.87	798.06	336.62	-512.47	835.77	347.11	-557.66	1352.6	-188.5	-567.94	1351.7	169.01	-589.86	1208.9	259.03	-585.55	603.57	154.51	-451.94	483.99	-176.72	-524.73	943.17	321.05	-276.52	40.839	-151.65	-512.5	928.68	164.42	-450.96	553.45	-193.71	-607.69	1217.1	-270.17	-696.37	1092.1	-302.71	-259.36	59.831	-69.018	-385.64	257.78	-83.231	-642.1	617.4	169.89	-222.1	68.194	-70.215	-598.28	1552.6	67.359	-686.14	443.88	135.59	-371.89	173.18	-87.083	-477.54	630.88	-228.48	-431.63	657.64	-198.58	-429.23	1198	8.3466	-488.15	1318.3	-4.4859	-475.95	946.18	-188.75	-663.87	534.56	149.96	-502.47	706.94	-257.95	-760.98	864.55	-379.45	-648.42	1398.4	3.8991	-691.62	962.38	-348.81	-707.15	1291.7	92.413	-737.79	32.108	20.147	-609.23	692.62	186.72	-586.67	1544.3	-67.859	-750.59	21.001	108.73	-920.62	58.582	62.284	-718.67	971.86	-141.51	-744.58	807.16	-388.82	-692.26	27.959	26.636	-736.89	261.22	117.7	-859.3	81.68	106.53	-746.97	970.39	-9.7234	-767.13	175.4	59.075	-705.52	838.7	-336.19	-720.43	247.06	65.648	-674.73	320.8	55.925	-391.65	342.86	-76.527	-397.44	69.908	-147.26	-838.41	89.74	22.068	-620.55	1048.7	306.71	-469.43	852.72	290.17	-658.76	1024	226.61	-709.47	1070.9	-40.02	-390.2	261.33	-144.69	-386.68	76.698	-63.433	-443.23	23.259	-103.28	-694.64	1048	-202.64
